<svg width="48" height="48" viewBox="0 0 48 48" fill="none" xmlns="http://www.w3.org/2000/svg">
<path d="M23.178 6C23.178 5.60218 23.02 5.22064 22.7387 4.93934C22.4574 4.65804 22.0758 4.5 21.678 4.5C21.2802 4.5 20.8986 4.65804 20.6173 4.93934C20.336 5.22064 20.178 5.60218 20.178 6V9.956C20.178 10.3538 20.336 10.7354 20.6173 11.0167C20.8986 11.298 21.2802 11.456 21.678 11.456C22.0758 11.456 22.4574 11.298 22.7387 11.0167C23.02 10.7354 23.178 10.3538 23.178 9.956V6ZM11.966 9.89C11.6846 9.61493 11.3064 9.46147 10.9128 9.46269C10.5193 9.46391 10.1421 9.61973 9.86236 9.89654C9.58266 10.1733 9.42294 10.549 9.41764 10.9425C9.41233 11.3359 9.56187 11.7158 9.834 12L12.774 14.966C12.9091 15.1188 13.074 15.2425 13.2586 15.3294C13.4432 15.4163 13.6435 15.4647 13.8474 15.4715C14.0513 15.4783 14.2545 15.4435 14.4445 15.3691C14.6344 15.2948 14.8072 15.1824 14.9523 15.039C15.0974 14.8956 15.2117 14.724 15.2882 14.5349C15.3647 14.3458 15.4018 14.1431 15.3973 13.9391C15.3928 13.7351 15.3467 13.5342 15.2619 13.3487C15.1771 13.1632 15.0553 12.9969 14.904 12.86L11.966 9.89ZM33.522 12C33.7858 11.7144 33.9284 11.3376 33.9197 10.949C33.9111 10.5603 33.7519 10.1902 33.4757 9.9166C33.1996 9.64302 32.828 9.48734 32.4392 9.48238C32.0505 9.47742 31.6751 9.62356 31.392 9.89L28.452 12.858C28.3053 12.996 28.188 13.1622 28.1069 13.3466C28.0259 13.5309 27.9828 13.7297 27.9802 13.9311C27.9776 14.1325 28.0157 14.3323 28.092 14.5187C28.1683 14.7051 28.2814 14.8742 28.4244 15.0159C28.5675 15.1576 28.7377 15.2691 28.9248 15.3437C29.1119 15.4182 29.312 15.4544 29.5134 15.4499C29.7147 15.4454 29.9131 15.4004 30.0967 15.3177C30.2803 15.2349 30.4454 15.1159 30.582 14.968L33.522 12ZM23.6 20.192C21.55 19.384 19.612 21.426 20.38 23.412L27.542 41.912C28.362 44.028 31.344 44.03 32.164 41.912L34.912 34.826L41.928 32.056C44.024 31.228 44.024 28.25 41.928 27.422L23.6 20.192ZM9.92 20.326H6C5.60218 20.326 5.22064 20.484 4.93934 20.7653C4.65804 21.0466 4.5 21.4282 4.5 21.826C4.5 22.2238 4.65804 22.6054 4.93934 22.8867C5.22064 23.168 5.60218 23.326 6 23.326H9.92C10.3178 23.326 10.6994 23.168 10.9807 22.8867C11.262 22.6054 11.42 22.2238 11.42 21.826C11.42 21.4282 11.262 21.0466 10.9807 20.7653C10.6994 20.484 10.3178 20.326 9.92 20.326ZM14.904 30.794C15.1763 30.51 15.3261 30.1304 15.3211 29.7369C15.3161 29.3435 15.1567 28.9678 14.8774 28.6908C14.598 28.4138 14.2209 28.2576 13.8275 28.256C13.434 28.2543 13.0557 28.4073 12.774 28.682L9.834 31.65C9.69532 31.79 9.58558 31.9559 9.51103 32.1383C9.43648 32.3207 9.39859 32.516 9.39952 32.7131C9.40045 32.9101 9.44018 33.1051 9.51644 33.2867C9.59271 33.4684 9.70401 33.6333 9.844 33.772C9.98399 33.9107 10.1499 34.0204 10.3323 34.095C10.5147 34.1695 10.71 34.2074 10.9071 34.2065C11.1041 34.2056 11.2991 34.1658 11.4807 34.0896C11.6624 34.0133 11.8273 33.902 11.966 33.762L14.904 30.794Z" fill="#000"/>
</svg>
