<svg width="50" height="50" viewBox="0 0 50 50" fill="none" xmlns="http://www.w3.org/2000/svg">
<path d="M25 0.625C20.1791 0.625 15.4664 2.05457 11.458 4.73293C7.44954 7.41129 4.32533 11.2181 2.48045 15.6721C0.635561 20.126 0.152855 25.027 1.09337 29.7553C2.03388 34.4836 4.35538 38.8268 7.76428 42.2357C11.1732 45.6446 15.5164 47.9661 20.2447 48.9066C24.973 49.8472 29.874 49.3644 34.3279 47.5196C38.7819 45.6747 42.5887 42.5505 45.2671 38.542C47.9454 34.5336 49.375 29.8209 49.375 25C49.3682 18.5374 46.7979 12.3415 42.2282 7.77181C37.6585 3.20209 31.4626 0.631825 25 0.625ZM35.7016 20.7016L22.5766 33.8266C22.4024 34.0009 22.1956 34.1392 21.968 34.2335C21.7404 34.3279 21.4964 34.3765 21.25 34.3765C21.0036 34.3765 20.7596 34.3279 20.532 34.2335C20.3044 34.1392 20.0976 34.0009 19.9234 33.8266L14.2984 28.2016C13.9466 27.8497 13.749 27.3726 13.749 26.875C13.749 26.3774 13.9466 25.9003 14.2984 25.5484C14.6503 25.1966 15.1275 24.999 15.625 24.999C16.1226 24.999 16.5997 25.1966 16.9516 25.5484L21.25 29.8492L33.0484 18.0484C33.2227 17.8742 33.4295 17.736 33.6571 17.6418C33.8847 17.5475 34.1286 17.499 34.375 17.499C34.6214 17.499 34.8653 17.5475 35.0929 17.6418C35.3206 17.736 35.5274 17.8742 35.7016 18.0484C35.8758 18.2226 36.014 18.4295 36.1082 18.6571C36.2025 18.8847 36.2511 19.1286 36.2511 19.375C36.2511 19.6214 36.2025 19.8653 36.1082 20.0929C36.014 20.3205 35.8758 20.5274 35.7016 20.7016Z" fill="#1B6FFF"/>
</svg>
