<svg width="85" height="64" viewBox="0 0 85 64" fill="none" xmlns="http://www.w3.org/2000/svg">
<path d="M26.7946 51.9546L24.5051 54.2273C24.1999 54.5304 23.8488 54.6819 23.452 54.6819C23.0552 54.6819 22.7041 54.5304 22.3989 54.2273L1.0614 33.0455C0.756144 32.7425 0.603516 32.394 0.603516 32.0001C0.603516 31.6061 0.756144 31.2576 1.0614 30.9546L22.3989 9.77279C22.7041 9.46976 23.0552 9.31824 23.452 9.31824C23.8488 9.31824 24.1999 9.46976 24.5051 9.77279L26.7946 12.0455C27.0998 12.3485 27.2524 12.697 27.2524 13.091C27.2524 13.4849 27.0998 13.8334 26.7946 14.1364L8.79966 32.0001L26.7946 49.8637C27.0998 50.1667 27.2524 50.5152 27.2524 50.9092C27.2524 51.3031 27.0998 51.6516 26.7946 51.9546ZM53.8556 3.45461L36.7765 62.1364C36.6544 62.5304 36.4178 62.8258 36.0667 63.0228C35.7157 63.2198 35.357 63.2576 34.9907 63.1364L32.1518 62.3637C31.755 62.2425 31.4574 62.0076 31.2589 61.6592C31.0605 61.3107 31.0224 60.9395 31.1445 60.5455L48.2236 1.8637C48.3457 1.46976 48.5823 1.1743 48.9333 0.977334C49.2844 0.780364 49.643 0.742486 50.0093 0.863698L52.8482 1.63642C53.2451 1.75764 53.5427 1.99249 53.7411 2.34097C53.9395 2.68946 53.9777 3.06067 53.8556 3.45461ZM83.9387 33.0455L62.6012 54.2273C62.2959 54.5304 61.9449 54.6819 61.5481 54.6819C61.1512 54.6819 60.8002 54.5304 60.4949 54.2273L58.2055 51.9546C57.9002 51.6516 57.7476 51.3031 57.7476 50.9092C57.7476 50.5152 57.9002 50.1667 58.2055 49.8637L76.2004 32.0001L58.2055 14.1364C57.9002 13.8334 57.7476 13.4849 57.7476 13.091C57.7476 12.697 57.9002 12.3485 58.2055 12.0455L60.4949 9.77279C60.8002 9.46976 61.1512 9.31824 61.5481 9.31824C61.9449 9.31824 62.2959 9.46976 62.6012 9.77279L83.9387 30.9546C84.2439 31.2576 84.3965 31.6061 84.3965 32.0001C84.3965 32.394 84.2439 32.7425 83.9387 33.0455Z" fill="white"/>
</svg>
