<svg width="32" height="32" viewBox="0 0 32 32" fill="none" xmlns="http://www.w3.org/2000/svg">
<path d="M12.4893 3H19.5107C20.9667 3 22.1213 3 23.0507 3.076C24.0027 3.15333 24.8067 3.316 25.5427 3.68933C26.7342 4.29713 27.7027 5.26656 28.3093 6.45867C28.684 7.192 28.8467 7.99733 28.924 8.94933C29 9.87867 29 11.0333 29 12.4893V19.5107C29 20.9667 29 22.1213 28.924 23.0507C28.8467 24.0027 28.684 24.8067 28.3107 25.5427C27.7032 26.734 26.7343 27.7025 25.5427 28.3093C24.8067 28.684 24.0027 28.8467 23.0507 28.924C22.1213 29 20.9667 29 19.5107 29H12.4893C11.0333 29 9.87867 29 8.94933 28.924C7.99733 28.8467 7.19333 28.684 6.45867 28.3107C5.26685 27.7034 4.29789 26.7345 3.69067 25.5427C3.316 24.8067 3.15333 24.0027 3.076 23.0507C3 22.1213 3 20.9667 3 19.5107V12.4893C3 11.0333 3 9.87867 3.076 8.94933C3.15333 7.99733 3.316 7.19333 3.68933 6.45867C4.2969 5.26665 5.26636 4.29766 6.45867 3.69067C7.192 3.316 7.99733 3.15333 8.94933 3.076C9.87867 3 11.0333 3 12.4893 3ZM18.396 10.9253C18.43 10.7984 18.4386 10.666 18.4214 10.5357C18.4042 10.4054 18.3615 10.2798 18.2958 10.166C18.163 9.93624 17.9444 9.7686 17.688 9.7C17.4316 9.6314 17.1585 9.66745 16.9287 9.80023C16.6989 9.933 16.5313 10.1516 16.4627 10.408L13.6053 21.0747C13.5367 21.3309 13.5727 21.6038 13.7054 21.8335C13.838 22.0632 14.0565 22.2307 14.3127 22.2993C14.5689 22.3679 14.8418 22.332 15.0715 22.1993C15.3012 22.0667 15.4687 21.8482 15.5373 21.592L18.396 10.9253ZM20.584 12.2253C20.4925 12.1271 20.3821 12.0483 20.2594 11.9936C20.1367 11.939 20.0043 11.9096 19.87 11.9072C19.7358 11.9048 19.6024 11.9295 19.4779 11.9798C19.3534 12.0301 19.2402 12.105 19.1453 12.1999C19.0503 12.2949 18.9755 12.408 18.9252 12.5325C18.8749 12.6571 18.8502 12.7904 18.8525 12.9247C18.8549 13.059 18.8843 13.1914 18.939 13.3141C18.9936 13.4367 19.0724 13.5471 19.1707 13.6387L19.3453 13.8147C20.048 14.516 20.5013 14.9733 20.792 15.3547C21.0653 15.712 21.0987 15.8827 21.0987 16C21.0987 16.1173 21.0653 16.288 20.792 16.6453C20.5013 17.0267 20.048 17.484 19.3453 18.1853L19.1707 18.36C19.0724 18.4516 18.9936 18.562 18.939 18.6846C18.8843 18.8073 18.8549 18.9397 18.8525 19.074C18.8502 19.2082 18.8749 19.3416 18.9252 19.4661C18.9755 19.5906 19.0503 19.7038 19.1453 19.7987C19.2402 19.8937 19.3534 19.9685 19.4779 20.0188C19.6024 20.0691 19.7358 20.0938 19.87 20.0915C20.0043 20.0891 20.1367 20.0597 20.2594 20.005C20.3821 19.9504 20.4925 19.8716 20.584 19.7733L20.8067 19.552C21.4493 18.912 22 18.36 22.3813 17.8587C22.7907 17.3227 23.0973 16.7307 23.0973 16C23.0973 15.2693 22.7907 14.6773 22.3813 14.1413C22 13.64 21.448 13.088 20.808 12.448L20.584 12.2253ZM12.8293 12.2253C12.6418 12.0381 12.3877 11.9329 12.1227 11.9329C11.8577 11.9329 11.6035 12.0381 11.416 12.2253L11.1933 12.448C10.552 13.088 10 13.64 9.61867 14.1413C9.20933 14.6773 8.90267 15.2693 8.90267 16C8.90267 16.7307 9.20933 17.3227 9.61867 17.8587C10 18.36 10.552 18.912 11.192 19.552L11.416 19.7747C11.6056 19.9513 11.8563 20.0475 12.1154 20.0429C12.3744 20.0383 12.6216 19.9334 12.8048 19.7502C12.988 19.5669 13.093 19.3198 13.0976 19.0607C13.1021 18.8016 13.006 18.5509 12.8293 18.3613L12.6547 18.1853C11.952 17.484 11.4987 17.0267 11.208 16.6453C10.9347 16.288 10.9013 16.1173 10.9013 16C10.9013 15.8827 10.9347 15.712 11.208 15.3547C11.4987 14.9733 11.952 14.516 12.6547 13.8147L12.8293 13.64C12.9223 13.5471 12.996 13.4369 13.0463 13.3155C13.0966 13.1941 13.1225 13.064 13.1225 12.9327C13.1225 12.8013 13.0966 12.6712 13.0463 12.5498C12.996 12.4285 12.9223 12.3182 12.8293 12.2253Z" fill="#1B6FFF"/>
</svg>
