<svg width="150" height="150" viewBox="0 0 150 150" fill="none" xmlns="http://www.w3.org/2000/svg">
<path d="M143.848 95.5078V26.995C143.848 23.1507 140.701 19.9219 136.857 19.9219H99.9404C97.2196 19.9219 94.7481 21.5634 93.6135 24.0363L89.8901 32.211C88.7555 34.684 86.284 36.3281 83.5632 36.3281H19.7865C15.9422 36.3281 12.8906 39.3826 12.8906 43.2272V106.615C12.8906 110.459 15.9422 113.672 19.7865 113.672H136.857C137.041 113.672 137.222 113.566 137.402 113.552V126.855H137.503C137.503 128.613 138.931 129.971 140.675 129.971C142.419 129.971 143.848 128.516 143.848 126.773V95.5078Z" fill="#0074A8"/>
<path d="M140.675 129.971C138.931 129.971 137.503 128.613 137.503 126.855H137.402V61.5765C137.402 57.7318 134.373 54.4922 130.529 54.4922H13.459C9.61465 54.4922 6.44531 57.7318 6.44531 61.5765V131.651C6.44531 135.496 9.61465 138.574 13.459 138.574H130.529C130.935 138.574 131.332 138.557 131.719 138.49C132.199 138.556 132.688 138.603 133.187 138.603C139.058 138.603 143.774 133.848 143.774 127.977C143.774 127.821 143.763 127.667 143.757 127.512C143.421 128.909 142.165 129.971 140.675 129.971Z" fill="#59CAFC"/>
</svg>
