<svg width="16" height="17" viewBox="0 0 16 17" fill="none" xmlns="http://www.w3.org/2000/svg">
<path d="M8 0.693848C6.94943 0.693848 5.90914 0.900774 4.93853 1.30281C3.96793 1.70485 3.08601 2.29412 2.34315 3.03699C0.842855 4.53728 0 6.57212 0 8.69385C0 12.2298 2.296 15.2298 5.472 16.2938C5.872 16.3578 6 16.1098 6 15.8938V14.5418C3.784 15.0218 3.312 13.4698 3.312 13.4698C2.944 12.5418 2.424 12.2938 2.424 12.2938C1.696 11.7978 2.48 11.8138 2.48 11.8138C3.28 11.8698 3.704 12.6378 3.704 12.6378C4.4 13.8538 5.576 13.4938 6.032 13.3018C6.104 12.7818 6.312 12.4298 6.536 12.2298C4.76 12.0298 2.896 11.3418 2.896 8.29385C2.896 7.40585 3.2 6.69385 3.72 6.12585C3.64 5.92585 3.36 5.09385 3.8 4.01385C3.8 4.01385 4.472 3.79785 6 4.82985C6.632 4.65385 7.32 4.56585 8 4.56585C8.68 4.56585 9.368 4.65385 10 4.82985C11.528 3.79785 12.2 4.01385 12.2 4.01385C12.64 5.09385 12.36 5.92585 12.28 6.12585C12.8 6.69385 13.104 7.40585 13.104 8.29385C13.104 11.3498 11.232 12.0218 9.448 12.2218C9.736 12.4698 10 12.9578 10 13.7018V15.8938C10 16.1098 10.128 16.3658 10.536 16.2938C13.712 15.2218 16 12.2298 16 8.69385C16 7.64327 15.7931 6.60298 15.391 5.63238C14.989 4.66177 14.3997 3.77986 13.6569 3.03699C12.914 2.29412 12.0321 1.70485 11.0615 1.30281C10.0909 0.900774 9.05058 0.693848 8 0.693848Z" fill="white"/>
</svg>
