<svg width="95" height="105" viewBox="0 0 95 105" fill="none" xmlns="http://www.w3.org/2000/svg">
<path d="M26.0858 1.175C26.703 0.71209 27.4054 0.375283 28.1528 0.183808C28.9001 -0.00766777 29.6779 -0.0500622 30.4417 0.0590467C31.2054 0.168156 31.9402 0.42663 32.6041 0.819713C33.268 1.2128 33.8479 1.73279 34.3108 2.35C34.7737 2.96721 35.1105 3.66956 35.302 4.41694C35.4935 5.16432 35.5359 5.94209 35.4268 6.70585C35.3177 7.46961 35.0592 8.2044 34.6661 8.86827C34.273 9.53214 33.753 10.1121 33.1358 10.575C23.9473 17.4664 18.6833 24.1697 15.6694 30.0212C19.8076 28.956 24.1749 29.2064 28.1642 30.7377C32.1534 32.269 35.5666 35.0051 37.9291 38.5656C40.2917 42.1262 41.4864 46.3343 41.347 50.6051C41.2077 54.8759 39.7413 58.9972 37.1516 62.3962C34.562 65.7952 30.9778 68.3029 26.8971 69.5709C22.8165 70.8389 18.4422 70.8041 14.3823 69.4714C10.3224 68.1387 6.77847 65.5743 4.2432 62.1346C1.70793 58.6948 0.30724 54.5507 0.235821 50.2782C-0.508626 43.0635 0.515739 35.776 3.22032 29.046C6.7277 20.1983 13.5838 10.5515 26.0858 1.175ZM78.9608 1.175C79.578 0.71209 80.2804 0.375283 81.0278 0.183808C81.7751 -0.00766777 82.5529 -0.0500622 83.3167 0.0590467C84.0804 0.168156 84.8152 0.42663 85.4791 0.819713C86.143 1.2128 86.7229 1.73279 87.1858 2.35C87.6487 2.96721 87.9855 3.66956 88.177 4.41694C88.3685 5.16432 88.4109 5.94209 88.3018 6.70585C88.1927 7.46961 87.9342 8.2044 87.5411 8.86827C87.148 9.53214 86.628 10.1121 86.0108 10.575C76.8223 17.4664 71.5583 24.1697 68.5444 30.0212C72.6826 28.956 77.0499 29.2064 81.0391 30.7377C85.0284 32.269 88.4416 35.0051 90.8041 38.5656C93.1667 42.1262 94.3614 46.3343 94.222 50.6051C94.0827 54.8759 92.6163 58.9972 90.0266 62.3962C87.437 65.7952 83.8528 68.3029 79.7721 69.5709C75.6915 70.8389 71.3172 70.8041 67.2573 69.4714C63.1974 68.1387 59.6535 65.5743 57.1182 62.1346C54.5829 58.6948 53.1822 54.5507 53.1108 50.2782C52.3664 43.0635 53.3907 35.776 56.0953 29.046C59.6086 20.1983 66.4588 10.5515 78.9608 1.175Z" fill="#1E1E1E"/>
</svg>
