<svg width="80" height="73" viewBox="0 0 80 73" fill="none" xmlns="http://www.w3.org/2000/svg">
<g filter="url(#filter0_d_134_130)">
<path d="M6.814 15.062C7.346 15.062 7.738 14.992 7.99 14.852C8.242 14.712 8.382 14.488 8.382 14.18C8.382 13.872 8.256 13.62 8.004 13.424C7.752 13.242 7.332 13.032 6.758 12.794C6.478 12.682 6.198 12.57 5.946 12.458C5.694 12.346 5.47 12.206 5.288 12.038C5.092 11.884 4.952 11.688 4.84 11.464C4.728 11.24 4.672 10.974 4.672 10.638C4.672 9.994 4.91 9.49 5.386 9.112C5.862 8.734 6.506 8.538 7.332 8.538C7.528 8.538 7.738 8.552 7.948 8.58C8.144 8.608 8.34 8.636 8.522 8.664C8.69 8.692 8.844 8.734 8.984 8.762C9.124 8.804 9.222 8.832 9.306 8.86L9.068 9.98C8.928 9.91 8.704 9.84 8.41 9.756C8.102 9.672 7.752 9.63 7.332 9.63C6.968 9.63 6.646 9.714 6.38 9.854C6.1 9.994 5.974 10.218 5.974 10.526C5.974 10.694 6.002 10.834 6.058 10.946C6.114 11.072 6.212 11.184 6.338 11.282C6.464 11.38 6.618 11.464 6.814 11.548C6.996 11.632 7.22 11.73 7.486 11.814C7.822 11.954 8.13 12.08 8.41 12.206C8.676 12.332 8.9 12.472 9.096 12.64C9.292 12.808 9.432 13.018 9.544 13.256C9.642 13.494 9.698 13.788 9.698 14.124C9.698 14.796 9.446 15.314 8.942 15.65C8.438 16 7.738 16.168 6.814 16.168C6.17 16.168 5.666 16.126 5.302 16.014C4.938 15.902 4.686 15.818 4.56 15.762L4.798 14.642C4.938 14.698 5.176 14.782 5.512 14.894C5.834 15.006 6.268 15.062 6.814 15.062ZM14.532 16.168C13.944 16.168 13.426 16.084 12.978 15.888C12.53 15.706 12.166 15.44 11.858 15.104C11.55 14.768 11.326 14.376 11.186 13.914C11.032 13.452 10.962 12.934 10.962 12.374C10.962 11.814 11.032 11.31 11.2 10.834C11.368 10.372 11.592 9.966 11.9 9.63C12.194 9.294 12.558 9.028 12.992 8.832C13.426 8.636 13.916 8.538 14.448 8.538C14.77 8.538 15.092 8.566 15.428 8.622C15.75 8.678 16.058 8.776 16.366 8.888L16.072 9.994C15.876 9.91 15.638 9.826 15.386 9.77C15.134 9.714 14.854 9.686 14.574 9.686C13.846 9.686 13.286 9.924 12.894 10.372C12.502 10.834 12.32 11.506 12.32 12.374C12.32 12.766 12.362 13.13 12.446 13.452C12.53 13.788 12.67 14.068 12.866 14.292C13.062 14.53 13.3 14.712 13.608 14.838C13.902 14.964 14.266 15.02 14.7 15.02C15.036 15.02 15.358 14.992 15.638 14.922C15.918 14.866 16.128 14.796 16.296 14.712L16.478 15.804C16.394 15.86 16.296 15.902 16.156 15.944C16.016 15.986 15.848 16.028 15.68 16.056C15.498 16.084 15.302 16.112 15.106 16.14C14.91 16.168 14.714 16.168 14.532 16.168ZM20.5639 8.566C20.6759 8.566 20.8019 8.58 20.9419 8.594C21.0819 8.608 21.2359 8.622 21.3759 8.65C21.5159 8.678 21.6419 8.692 21.7539 8.72C21.8659 8.748 21.9639 8.762 22.0199 8.776L21.7959 9.91C21.6839 9.882 21.5159 9.84 21.2779 9.784C21.0399 9.728 20.7319 9.7 20.3679 9.7C20.1159 9.7 19.8779 9.728 19.6399 9.784C19.4019 9.84 19.2479 9.868 19.1779 9.882V16H17.8759V9.028C18.1839 8.916 18.5619 8.818 19.0239 8.72C19.4719 8.622 19.9899 8.566 20.5639 8.566ZM29.7023 12.36C29.7023 12.948 29.6183 13.466 29.4503 13.928C29.2823 14.404 29.0443 14.796 28.7363 15.132C28.4283 15.468 28.0783 15.734 27.6583 15.916C27.2383 16.098 26.7763 16.182 26.2863 16.182C25.7823 16.182 25.3343 16.098 24.9143 15.916C24.4943 15.734 24.1303 15.468 23.8223 15.132C23.5143 14.796 23.2903 14.404 23.1223 13.928C22.9543 13.466 22.8703 12.948 22.8703 12.36C22.8703 11.8 22.9543 11.282 23.1223 10.806C23.2903 10.33 23.5143 9.924 23.8223 9.588C24.1303 9.252 24.4943 9 24.9143 8.818C25.3343 8.636 25.7823 8.538 26.2863 8.538C26.7763 8.538 27.2383 8.636 27.6583 8.818C28.0783 9 28.4283 9.252 28.7363 9.588C29.0443 9.924 29.2823 10.33 29.4503 10.806C29.6183 11.282 29.7023 11.8 29.7023 12.36ZM28.3443 12.36C28.3443 11.548 28.1483 10.89 27.7843 10.414C27.4203 9.938 26.9163 9.686 26.2863 9.686C25.6423 9.686 25.1383 9.938 24.7743 10.414C24.4103 10.89 24.2283 11.548 24.2283 12.36C24.2283 13.186 24.4103 13.844 24.7743 14.32C25.1383 14.796 25.6423 15.034 26.2863 15.034C26.9163 15.034 27.4203 14.796 27.7843 14.32C28.1483 13.844 28.3443 13.186 28.3443 12.36ZM33.7181 16.14C32.9061 16.126 32.3461 15.958 32.0101 15.622C31.6741 15.3 31.5061 14.796 31.5061 14.096V5.36L32.8081 5.136V13.886C32.8081 14.11 32.8221 14.278 32.8641 14.418C32.8921 14.558 32.9621 14.67 33.0461 14.754C33.1301 14.838 33.2421 14.908 33.3821 14.95C33.5221 14.992 33.6901 15.02 33.9001 15.048L33.7181 16.14ZM37.5462 16.14C36.7342 16.126 36.1742 15.958 35.8382 15.622C35.5022 15.3 35.3342 14.796 35.3342 14.096V5.36L36.6362 5.136V13.886C36.6362 14.11 36.6502 14.278 36.6922 14.418C36.7202 14.558 36.7902 14.67 36.8742 14.754C36.9582 14.838 37.0702 14.908 37.2102 14.95C37.3502 14.992 37.5182 15.02 37.7282 15.048L37.5462 16.14ZM47.1345 10.26C46.9665 10.134 46.7425 10.008 46.4485 9.882C46.1405 9.77 45.8185 9.7 45.4685 9.7C45.0905 9.7 44.7685 9.77 44.5025 9.91C44.2365 10.05 44.0265 10.232 43.8585 10.47C43.6905 10.708 43.5645 10.988 43.4945 11.31C43.4105 11.646 43.3825 11.996 43.3825 12.36C43.3825 13.214 43.5925 13.872 44.0125 14.334C44.4325 14.796 44.9925 15.02 45.6925 15.02C46.0425 15.02 46.3365 15.006 46.5745 14.978C46.8125 14.95 46.9945 14.908 47.1345 14.866V10.26ZM47.1345 5.36L48.4365 5.136V15.79C48.1285 15.874 47.7505 15.958 47.2885 16.042C46.8125 16.126 46.2805 16.168 45.6785 16.168C45.1185 16.168 44.6145 16.084 44.1665 15.902C43.7185 15.734 43.3265 15.482 43.0185 15.146C42.6965 14.824 42.4445 14.432 42.2765 13.956C42.1085 13.48 42.0245 12.948 42.0245 12.36C42.0245 11.8 42.0945 11.296 42.2345 10.82C42.3745 10.358 42.5985 9.952 42.8785 9.616C43.1585 9.28 43.4945 9.028 43.9005 8.832C44.3065 8.65 44.7685 8.552 45.3005 8.552C45.7205 8.552 46.0845 8.608 46.4065 8.72C46.7285 8.832 46.9665 8.944 47.1345 9.042V5.36ZM57.1007 12.36C57.1007 12.948 57.0167 13.466 56.8487 13.928C56.6807 14.404 56.4427 14.796 56.1347 15.132C55.8267 15.468 55.4767 15.734 55.0567 15.916C54.6367 16.098 54.1747 16.182 53.6847 16.182C53.1807 16.182 52.7327 16.098 52.3127 15.916C51.8927 15.734 51.5287 15.468 51.2207 15.132C50.9127 14.796 50.6887 14.404 50.5207 13.928C50.3527 13.466 50.2687 12.948 50.2687 12.36C50.2687 11.8 50.3527 11.282 50.5207 10.806C50.6887 10.33 50.9127 9.924 51.2207 9.588C51.5287 9.252 51.8927 9 52.3127 8.818C52.7327 8.636 53.1807 8.538 53.6847 8.538C54.1747 8.538 54.6367 8.636 55.0567 8.818C55.4767 9 55.8267 9.252 56.1347 9.588C56.4427 9.924 56.6807 10.33 56.8487 10.806C57.0167 11.282 57.1007 11.8 57.1007 12.36ZM55.7427 12.36C55.7427 11.548 55.5467 10.89 55.1827 10.414C54.8187 9.938 54.3147 9.686 53.6847 9.686C53.0407 9.686 52.5367 9.938 52.1727 10.414C51.8087 10.89 51.6267 11.548 51.6267 12.36C51.6267 13.186 51.8087 13.844 52.1727 14.32C52.5367 14.796 53.0407 15.034 53.6847 15.034C54.3147 15.034 54.8187 14.796 55.1827 14.32C55.5467 13.844 55.7427 13.186 55.7427 12.36ZM64.7048 16C64.4388 15.328 64.1588 14.572 63.8648 13.704C63.5708 12.836 63.3048 11.94 63.0668 11.002C62.8148 11.94 62.5488 12.836 62.2688 13.704C61.9748 14.572 61.6948 15.328 61.4428 16H60.3088C59.8748 15.048 59.4548 13.942 59.0488 12.71C58.6288 11.478 58.2508 10.148 57.8868 8.72H59.2868C59.3708 9.168 59.4828 9.644 59.6228 10.148C59.7488 10.666 59.8888 11.184 60.0288 11.688C60.1688 12.206 60.3228 12.696 60.4908 13.172C60.6448 13.648 60.7988 14.068 60.9388 14.418C61.0928 13.984 61.2468 13.522 61.4008 13.032C61.5548 12.542 61.7088 12.052 61.8488 11.548C61.9888 11.044 62.1148 10.554 62.2408 10.078C62.3668 9.602 62.4788 9.14 62.5768 8.72H63.6548C63.7388 9.14 63.8368 9.602 63.9628 10.078C64.0748 10.554 64.2148 11.044 64.3548 11.548C64.4948 12.052 64.6348 12.542 64.7888 13.032C64.9428 13.522 65.0968 13.984 65.2648 14.418C65.4048 14.068 65.5448 13.648 65.6988 13.172C65.8528 12.696 66.0068 12.206 66.1608 11.688C66.3008 11.184 66.4408 10.666 66.5808 10.148C66.7068 9.644 66.8188 9.168 66.9168 8.72H68.2608C67.8968 10.148 67.5048 11.478 67.0988 12.71C66.6788 13.942 66.2588 15.048 65.8388 16H64.7048ZM69.6376 8.93C69.9316 8.86 70.3236 8.776 70.8276 8.692C71.3176 8.608 71.8916 8.566 72.5356 8.566C73.1096 8.566 73.5856 8.65 73.9776 8.818C74.3556 8.986 74.6636 9.21 74.8876 9.504C75.1116 9.798 75.2796 10.148 75.3776 10.554C75.4616 10.974 75.5176 11.422 75.5176 11.912V16H74.2156V12.192C74.2156 11.744 74.1736 11.366 74.1176 11.044C74.0616 10.736 73.9636 10.47 73.8236 10.274C73.6836 10.078 73.4876 9.938 73.2636 9.854C73.0256 9.77 72.7316 9.714 72.3956 9.714C72.2556 9.714 72.1016 9.728 71.9616 9.728C71.8076 9.742 71.6676 9.756 71.5276 9.77C71.3876 9.784 71.2756 9.798 71.1636 9.812C71.0516 9.84 70.9816 9.854 70.9396 9.854V16H69.6376V8.93Z" fill="#535353"/>
<path d="M30.5 40.75C30.5 37.9652 31.6062 35.2945 33.5754 33.3254C35.5445 31.3562 38.2152 30.25 41 30.25C43.7848 30.25 46.4555 31.3562 48.4246 33.3254C50.3938 35.2945 51.5 37.9652 51.5 40.75V51.25C51.5 54.0348 50.3938 56.7055 48.4246 58.6746C46.4555 60.6438 43.7848 61.75 41 61.75C38.2152 61.75 35.5445 60.6438 33.5754 58.6746C31.6062 56.7055 30.5 54.0348 30.5 51.25V40.75Z" stroke="#757575" stroke-width="2" stroke-linejoin="round"/>
<path d="M41 37.25V44.25" stroke="#757575" stroke-width="2" stroke-linecap="round" stroke-linejoin="round"/>
</g>
<defs>
<filter id="filter0_d_134_130" x="0.560059" y="3.13599" width="78.9575" height="69.864" filterUnits="userSpaceOnUse" color-interpolation-filters="sRGB">
<feFlood flood-opacity="0" result="BackgroundImageFix"/>
<feColorMatrix in="SourceAlpha" type="matrix" values="0 0 0 0 0 0 0 0 0 0 0 0 0 0 0 0 0 0 127 0" result="hardAlpha"/>
<feOffset dy="2"/>
<feGaussianBlur stdDeviation="2"/>
<feComposite in2="hardAlpha" operator="out"/>
<feColorMatrix type="matrix" values="0 0 0 0 0 0 0 0 0 0 0 0 0 0 0 0 0 0 0.25 0"/>
<feBlend mode="normal" in2="BackgroundImageFix" result="effect1_dropShadow_134_130"/>
<feBlend mode="normal" in="SourceGraphic" in2="effect1_dropShadow_134_130" result="shape"/>
</filter>
</defs>
</svg>
