<svg width="87" height="87" viewBox="0 0 87 87" fill="none" xmlns="http://www.w3.org/2000/svg">
<path d="M36.25 32.625C36.25 31.6636 36.6319 30.7416 37.3117 30.0617C37.9916 29.3819 38.9136 29 39.875 29C40.8364 29 41.7584 29.3819 42.4383 30.0617C43.1181 30.7416 43.5 31.6636 43.5 32.625V48.8288L47.8863 49.3L65.7938 57.2388C67.715 58.1087 68.875 60.03 68.875 62.1325V77.9375C68.7663 80.91 66.41 83.2663 63.4375 83.375H39.875C38.4975 83.375 37.1925 82.8312 36.25 81.8162L18.4875 66.5913L21.17 63.8C21.8588 63.0387 22.8375 62.64 23.8525 62.64H24.65L36.25 68.875V32.625ZM39.875 18.125C43.7206 18.125 47.4088 19.6527 50.1281 22.372C52.8473 25.0912 54.375 28.7794 54.375 32.625C54.375 38.0625 51.475 42.6663 47.125 45.1675V40.745C49.3363 38.7512 50.75 35.8512 50.75 32.625C50.75 29.7408 49.6042 26.9747 47.5648 24.9352C45.5253 22.8958 42.7592 21.75 39.875 21.75C36.9908 21.75 34.2247 22.8958 32.1852 24.9352C30.1458 26.9747 29 29.7408 29 32.625C29 35.8512 30.4138 38.7512 32.625 40.745V45.1675C28.275 42.6663 25.375 38.0625 25.375 32.625C25.375 28.7794 26.9027 25.0912 29.622 22.372C32.3412 19.6527 36.0294 18.125 39.875 18.125ZM39.875 10.875C45.6435 10.875 51.1757 13.1665 55.2546 17.2454C59.3335 21.3243 61.625 26.8565 61.625 32.625C61.625 38.7875 59.0513 44.3337 54.955 48.3213L51.33 46.69C53.4128 44.9848 55.0914 42.8389 56.2448 40.4067C57.3982 37.9745 57.9977 35.3168 58 32.625C58 27.818 56.0904 23.2078 52.6913 19.8087C49.2922 16.4096 44.6821 14.5 39.875 14.5C35.068 14.5 30.4578 16.4096 27.0587 19.8087C23.6596 23.2078 21.75 27.818 21.75 32.625C21.75 40.0562 26.2088 46.4362 32.625 49.2275V53.1425C24.1788 50.1338 18.125 42.0863 18.125 32.625C18.125 26.8565 20.4165 21.3243 24.4954 17.2454C28.5743 13.1665 34.1065 10.875 39.875 10.875Z" fill="white"/>
</svg>
