<svg width="76" height="76" viewBox="0 0 76 76" fill="none" xmlns="http://www.w3.org/2000/svg">
<path d="M13.3696 69.6508V58.4091C13.3696 54.3843 12.3151 52.2911 10.2441 48.7919C7.71938 44.5173 6.37024 39.651 6.33353 34.6867C6.29682 29.7224 7.57385 24.8366 10.035 20.5252C12.4962 16.2138 16.054 12.63 20.3475 10.1376C24.6409 7.6451 29.5173 6.33261 34.4817 6.33325C41.9458 6.33409 49.1041 9.29913 54.3826 14.5764C59.6611 19.8538 62.6277 27.0113 62.6302 34.4754C62.6302 36.3121 62.6302 37.2304 62.7062 37.7434C62.8899 38.9721 63.4662 40.0298 64.0267 41.1254L69.6666 52.0631L65.2332 54.2798C63.9507 54.9194 63.3079 55.2393 62.8614 55.8314C62.4149 56.4236 62.2882 57.0949 62.0381 58.4281L62.0127 58.5611C61.4332 61.6264 60.7967 65.0084 59.0044 67.1428C58.3711 67.8933 57.5857 68.5044 56.7022 68.9383C55.2424 69.6508 53.4469 69.6508 49.8559 69.6508C48.1934 69.6508 46.5277 69.6888 44.8652 69.6508C40.9291 69.5526 37.9999 66.2403 37.9999 62.3991" stroke="white" stroke-width="4" stroke-linecap="round" stroke-linejoin="round"/>
<path d="M45.562 33.3514C44.213 33.3514 42.9811 32.8384 42.047 31.9992M45.562 33.3514C45.562 36.9804 43.4593 40.4257 39.4123 40.4257C35.3653 40.4257 33.2626 43.871 33.2626 47.5M45.562 33.3514C52.3703 33.3514 52.3703 22.7399 45.562 22.7399C44.9413 22.742 44.3534 22.8422 43.7981 23.0407C44.1306 15.1304 32.7275 12.9834 30.1435 20.3934M30.1435 20.3934C32.0276 21.6632 33.2626 23.8229 33.2626 26.2739M30.1435 20.3934C24.2788 16.435 16.4635 23.5379 20.1812 29.8712C13.9428 30.8054 14.6078 40.4257 20.9633 40.4257C21.8107 40.4253 22.6455 40.2201 23.3965 39.8276C24.1474 39.435 24.7924 38.8666 25.2763 38.171" stroke="white" stroke-width="4" stroke-linecap="round" stroke-linejoin="round"/>
</svg>
