<svg width="16" height="17" viewBox="0 0 16 17" fill="none" xmlns="http://www.w3.org/2000/svg">
<path fill-rule="evenodd" clip-rule="evenodd" d="M5.76133 0.816149C4.20885 1.26654 2.82871 2.17247 1.80097 3.41575C0.773232 4.65903 0.145615 6.18194 0 7.78579H3.67183C3.88587 5.34516 4.5964 2.97343 5.76018 0.815006L5.76133 0.816149ZM3.67183 9.21423H0C0.145312 10.8181 0.772661 12.3412 1.8002 13.5847C2.82773 14.8282 4.20774 15.7344 5.76018 16.185C4.5964 14.0266 3.88587 11.6549 3.67183 9.21423ZM7.60069 16.4901C6.2095 14.2927 5.35656 11.8004 5.11073 9.21423H10.8881C10.6423 11.8004 9.78935 14.2927 8.39816 16.4901C8.1325 16.5033 7.86635 16.5033 7.60069 16.4901ZM10.2398 16.1839C11.7921 15.7333 13.172 14.8273 14.1995 13.584C15.227 12.3407 15.8545 10.8179 16 9.21423H12.3282C12.1141 11.6549 11.4036 14.0266 10.2398 16.185V16.1839ZM12.3282 7.78579H16C15.8547 6.18188 15.2273 4.65883 14.1998 3.41534C13.1723 2.17184 11.7923 1.26566 10.2398 0.815006C11.4036 2.97343 12.1141 5.34516 12.3282 7.78579ZM7.60069 0.509891C7.86673 0.496703 8.13327 0.496703 8.39931 0.509891C9.7901 2.70738 10.6426 5.19974 10.8881 7.78579H5.11188C5.36087 5.18375 6.21572 2.68912 7.60069 0.509891Z" fill="white"/>
</svg>
